<svg width="38" height="30" viewBox="0 0 38 30" fill="none" xmlns="http://www.w3.org/2000/svg">
<path d="M1.44531 27.7734C1.44531 27.6172 1.45833 27.3698 1.48438 27.0312C1.51042 26.6927 1.52344 26.4974 1.52344 26.4453C2.04427 24.3359 2.47396 22.526 2.8125 21.0156C3.17708 19.5052 3.47656 18.2292 3.71094 17.1875C3.94531 16.1458 4.1276 15.3125 4.25781 14.6875C4.38802 14.0625 4.47917 13.5807 4.53125 13.2422C4.58333 12.8776 4.60938 12.6302 4.60938 12.5C4.63542 12.3438 4.64844 12.2266 4.64844 12.1484C4.64844 11.9922 4.64844 11.7188 4.64844 11.3281C4.67448 10.9375 4.66146 10.5469 4.60938 10.1562C4.55729 9.73958 4.45312 9.38802 4.29688 9.10156C4.16667 8.78906 3.93229 8.63281 3.59375 8.63281C3.25521 8.63281 2.96875 8.75 2.73438 8.98438C2.52604 9.19271 2.31771 9.41406 2.10938 9.64844C1.90104 9.85677 1.66667 10.0391 1.40625 10.1953C1.17188 10.3516 0.872396 10.3646 0.507812 10.2344C0.872396 9.14062 1.32812 8.35938 1.875 7.89062C2.44792 7.42188 3.28125 7.1875 4.375 7.1875C5.02604 7.1875 5.50781 7.31771 5.82031 7.57812C6.15885 7.8125 6.38021 8.13802 6.48438 8.55469C6.61458 8.94531 6.67969 9.40104 6.67969 9.92188C6.67969 10.4427 6.67969 10.9766 6.67969 11.5234C6.67969 12.513 6.58854 13.4896 6.40625 14.4531C6.25 15.4167 6.06771 16.3802 5.85938 17.3438C5.65104 18.3073 5.45573 19.2708 5.27344 20.2344C5.11719 21.1979 5.03906 22.1745 5.03906 23.1641C5.03906 23.2161 5.03906 23.3464 5.03906 23.5547C5.0651 23.737 5.07812 23.8542 5.07812 23.9062L5.58594 23.3984C7.72135 20.3516 9.42708 17.8776 10.7031 15.9766C12.0052 14.0755 13.0339 12.5911 13.7891 11.5234C14.5443 10.4297 15.1302 9.6875 15.5469 9.29688C15.9635 8.90625 16.3542 8.71094 16.7188 8.71094C17.0573 8.71094 17.3177 8.80208 17.5 8.98438C17.7083 9.16667 17.8646 9.38802 17.9688 9.64844C18.0729 9.90885 18.138 10.1953 18.1641 10.5078C18.2161 10.7943 18.2422 11.0547 18.2422 11.2891V23.3984H18.75L32.3828 2.65625C33.0859 1.61458 33.8151 0.9375 34.5703 0.625C35.3255 0.286458 36.2891 0.286458 37.4609 0.625L33.4375 4.6875C31.25 8.04688 29.401 10.9635 27.8906 13.4375C26.4062 15.8854 25.1562 17.9818 24.1406 19.7266C23.151 21.4453 22.3438 22.8516 21.7188 23.9453C21.1198 25.013 20.612 25.8594 20.1953 26.4844C19.7786 27.0833 19.4141 27.5 19.1016 27.7344C18.7891 27.9427 18.4245 28.0469 18.0078 28.0469C17.3047 28.0469 16.7839 27.8255 16.4453 27.3828C16.1328 26.9401 15.9115 26.4193 15.7812 25.8203C15.6771 25.1953 15.625 24.5573 15.625 23.9062C15.651 23.2552 15.6641 22.7214 15.6641 22.3047C15.6641 21.3672 15.6641 20.5208 15.6641 19.7656C15.6901 18.9844 15.7161 18.2161 15.7422 17.4609C15.7943 16.7057 15.8464 15.9245 15.8984 15.1172C15.9766 14.2839 16.0807 13.3333 16.2109 12.2656C13.8672 15.8333 11.9401 18.724 10.4297 20.9375C8.94531 23.151 7.73438 24.8698 6.79688 26.0938C5.85938 27.3177 5.11719 28.151 4.57031 28.5938C4.04948 29.0104 3.56771 29.2188 3.125 29.2188C2.42188 29.2188 1.96615 29.1146 1.75781 28.9062C1.54948 28.6719 1.44531 28.2943 1.44531 27.7734Z" fill="white"/>
</svg>
