<svg width="1000" height="1000" viewBox="0 0 1000 1000" fill="none" xmlns="http://www.w3.org/2000/svg">
<rect width="1000" height="1000" rx="500" fill="black"/>
<path d="M219.795 728.035C219.795 725.301 220.023 720.971 220.479 715.047C220.934 709.122 221.162 705.704 221.162 704.793C230.277 667.879 237.796 636.206 243.721 609.773C250.101 583.341 255.342 561.01 259.443 542.781C263.545 524.552 266.735 509.969 269.014 499.031C271.292 488.094 272.887 479.663 273.799 473.738C274.71 467.358 275.166 463.029 275.166 460.75C275.622 458.016 275.85 455.965 275.85 454.598C275.85 451.863 275.85 447.078 275.85 440.242C276.305 433.406 276.077 426.57 275.166 419.734C274.255 412.443 272.432 406.29 269.697 401.277C267.419 395.809 263.317 393.074 257.393 393.074C251.468 393.074 246.455 395.125 242.354 399.227C238.708 402.872 235.062 406.746 231.416 410.848C227.77 414.493 223.669 417.684 219.111 420.418C215.01 423.152 209.769 423.38 203.389 421.102C209.769 401.961 217.744 388.289 227.314 380.086C237.34 371.883 251.924 367.781 271.064 367.781C282.458 367.781 290.889 370.06 296.357 374.617C302.282 378.719 306.156 384.415 307.979 391.707C310.257 398.543 311.396 406.518 311.396 415.633C311.396 424.747 311.396 434.09 311.396 443.66C311.396 460.978 309.801 478.068 306.611 494.93C303.877 511.792 300.687 528.654 297.041 545.516C293.395 562.378 289.977 579.24 286.787 596.102C284.053 612.964 282.686 630.053 282.686 647.371C282.686 648.283 282.686 650.561 282.686 654.207C283.141 657.397 283.369 659.448 283.369 660.359L292.256 651.473C329.626 598.152 359.476 554.858 381.807 521.59C404.593 488.322 422.594 462.345 435.811 443.66C449.027 424.52 459.281 411.531 466.572 404.695C473.864 397.859 480.7 394.441 487.08 394.441C493.005 394.441 497.562 396.036 500.752 399.227C504.398 402.417 507.132 406.29 508.955 410.848C510.778 415.405 511.917 420.418 512.373 425.887C513.285 430.9 513.74 435.457 513.74 439.559V651.473H522.627L761.201 288.484C773.506 270.255 786.266 258.406 799.482 252.938C812.699 247.013 829.561 247.013 850.068 252.938L779.658 324.031C741.377 382.82 709.02 433.862 682.588 477.156C656.611 519.995 634.736 556.681 616.963 587.215C599.645 617.293 585.518 641.902 574.58 661.043C564.098 679.728 555.212 694.539 547.92 705.477C540.628 715.958 534.248 723.25 528.779 727.352C523.311 730.997 516.93 732.82 509.639 732.82C497.334 732.82 488.219 728.947 482.295 721.199C476.826 713.452 472.952 704.337 470.674 693.855C468.851 682.918 467.939 671.753 467.939 660.359C468.395 648.966 468.623 639.624 468.623 632.332C468.623 615.926 468.623 601.115 468.623 587.898C469.079 574.227 469.535 560.783 469.99 547.566C470.902 534.35 471.813 520.678 472.725 506.551C474.092 491.967 475.915 475.333 478.193 456.648C437.178 519.083 403.454 569.669 377.021 608.406C351.045 647.143 329.854 677.221 313.447 698.641C297.041 720.06 284.053 734.643 274.482 742.391C265.368 749.682 256.937 753.328 249.189 753.328C236.885 753.328 228.91 751.505 225.264 747.859C221.618 743.758 219.795 737.15 219.795 728.035Z" fill="white"/>
</svg>
