<svg width="91" height="31" viewBox="0 0 91 31" fill="none" xmlns="http://www.w3.org/2000/svg">
<path d="M1.44531 27.7734C1.44531 27.6172 1.45833 27.3698 1.48438 27.0312C1.51042 26.6927 1.52344 26.4974 1.52344 26.4453C2.04427 24.3359 2.47396 22.526 2.8125 21.0156C3.17708 19.5052 3.47656 18.2292 3.71094 17.1875C3.94531 16.1458 4.1276 15.3125 4.25781 14.6875C4.38802 14.0625 4.47917 13.5807 4.53125 13.2422C4.58333 12.8776 4.60938 12.6302 4.60938 12.5C4.63542 12.3438 4.64844 12.2266 4.64844 12.1484C4.64844 11.9922 4.64844 11.7188 4.64844 11.3281C4.67448 10.9375 4.66146 10.5469 4.60938 10.1562C4.55729 9.73958 4.45312 9.38802 4.29688 9.10156C4.16667 8.78906 3.93229 8.63281 3.59375 8.63281C3.25521 8.63281 2.96875 8.75 2.73438 8.98438C2.52604 9.19271 2.31771 9.41406 2.10938 9.64844C1.90104 9.85677 1.66667 10.0391 1.40625 10.1953C1.17188 10.3516 0.872396 10.3646 0.507812 10.2344C0.872396 9.14062 1.32812 8.35938 1.875 7.89062C2.44792 7.42188 3.28125 7.1875 4.375 7.1875C5.02604 7.1875 5.50781 7.31771 5.82031 7.57812C6.15885 7.8125 6.38021 8.13802 6.48438 8.55469C6.61458 8.94531 6.67969 9.40104 6.67969 9.92188C6.67969 10.4427 6.67969 10.9766 6.67969 11.5234C6.67969 12.513 6.58854 13.4896 6.40625 14.4531C6.25 15.4167 6.06771 16.3802 5.85938 17.3438C5.65104 18.3073 5.45573 19.2708 5.27344 20.2344C5.11719 21.1979 5.03906 22.1745 5.03906 23.1641C5.03906 23.2161 5.03906 23.3464 5.03906 23.5547C5.0651 23.737 5.07812 23.8542 5.07812 23.9062L5.58594 23.3984C7.72135 20.3516 9.42708 17.8776 10.7031 15.9766C12.0052 14.0755 13.0339 12.5911 13.7891 11.5234C14.5443 10.4297 15.1302 9.6875 15.5469 9.29688C15.9635 8.90625 16.3542 8.71094 16.7188 8.71094C17.0573 8.71094 17.3177 8.80208 17.5 8.98438C17.7083 9.16667 17.8646 9.38802 17.9688 9.64844C18.0729 9.90885 18.138 10.1953 18.1641 10.5078C18.2161 10.7943 18.2422 11.0547 18.2422 11.2891V23.3984H18.75L32.3828 2.65625C33.0859 1.61458 33.8151 0.9375 34.5703 0.625C35.3255 0.286458 36.2891 0.286458 37.4609 0.625L33.4375 4.6875C31.25 8.04688 29.401 10.9635 27.8906 13.4375C26.4062 15.8854 25.1562 17.9818 24.1406 19.7266C23.151 21.4453 22.3438 22.8516 21.7188 23.9453C21.1198 25.013 20.612 25.8594 20.1953 26.4844C19.7786 27.0833 19.4141 27.5 19.1016 27.7344C18.7891 27.9427 18.4245 28.0469 18.0078 28.0469C17.3047 28.0469 16.7839 27.8255 16.4453 27.3828C16.1328 26.9401 15.9115 26.4193 15.7812 25.8203C15.6771 25.1953 15.625 24.5573 15.625 23.9062C15.651 23.2552 15.6641 22.7214 15.6641 22.3047C15.6641 21.3672 15.6641 20.5208 15.6641 19.7656C15.6901 18.9844 15.7161 18.2161 15.7422 17.4609C15.7943 16.7057 15.8464 15.9245 15.8984 15.1172C15.9766 14.2839 16.0807 13.3333 16.2109 12.2656C13.8672 15.8333 11.9401 18.724 10.4297 20.9375C8.94531 23.151 7.73438 24.8698 6.79688 26.0938C5.85938 27.3177 5.11719 28.151 4.57031 28.5938C4.04948 29.0104 3.56771 29.2188 3.125 29.2188C2.42188 29.2188 1.96615 29.1146 1.75781 28.9062C1.54948 28.6719 1.44531 28.2943 1.44531 27.7734ZM27.6172 27.4609C27.8516 25.9766 28.2943 24.6094 28.9453 23.3594C29.5964 22.1094 30.3385 21.0286 31.1719 20.1172C32.0312 19.1797 32.9557 18.4115 33.9453 17.8125C34.9349 17.2135 35.8984 16.8359 36.8359 16.6797C37.7734 16.4974 38.6328 16.5365 39.4141 16.7969C40.2214 17.0573 40.8724 17.5781 41.3672 18.3594C41.3672 18.9583 41.224 19.5312 40.9375 20.0781C40.6771 20.625 40.3776 21.1719 40.0391 21.7188C39.7266 22.2656 39.4271 22.8255 39.1406 23.3984C38.8802 23.9714 38.75 24.5833 38.75 25.2344C38.75 25.9115 38.8932 26.4583 39.1797 26.875C39.4922 27.2656 40.026 27.4609 40.7812 27.4609C41.4062 27.4609 42.0052 27.3698 42.5781 27.1875C43.1771 27.0052 43.776 26.9141 44.375 26.9141C44.4792 26.9141 44.6484 26.9271 44.8828 26.9531C45.1432 26.9531 45.3125 26.9531 45.3906 26.9531C45.0781 27.3958 44.6745 27.7734 44.1797 28.0859C43.6849 28.3984 43.1641 28.6719 42.6172 28.9062C42.0703 29.1146 41.4974 29.2708 40.8984 29.375C40.3255 29.4792 39.7917 29.5312 39.2969 29.5312C38.8281 29.5312 38.4115 29.4271 38.0469 29.2188C37.6823 29.0104 37.3698 28.737 37.1094 28.3984C36.849 28.0599 36.6406 27.6823 36.4844 27.2656C36.3542 26.8229 36.2891 26.3932 36.2891 25.9766C35.8984 26.4193 35.4688 26.888 35 27.3828C34.5573 27.8516 34.0755 28.2812 33.5547 28.6719C33.0599 29.0625 32.513 29.388 31.9141 29.6484C31.3411 29.9089 30.7422 30.0391 30.1172 30.0391C29.4401 30.0391 28.8542 29.7917 28.3594 29.2969C27.8646 28.776 27.6172 28.1641 27.6172 27.4609ZM30.1953 26.25C30.1953 26.4583 30.1953 26.6927 30.1953 26.9531C30.2214 27.2135 30.3906 27.3828 30.7031 27.4609C31.3542 27.3047 32.0964 26.9661 32.9297 26.4453C33.763 25.8984 34.5443 25.2734 35.2734 24.5703C36.0026 23.8411 36.6146 23.0729 37.1094 22.2656C37.6042 21.4323 37.8516 20.638 37.8516 19.8828C37.8516 19.8307 37.8385 19.7526 37.8125 19.6484C37.8125 19.5182 37.8125 19.4271 37.8125 19.375C36.9271 19.375 36.0286 19.5573 35.1172 19.9219C34.2057 20.2865 33.3854 20.7943 32.6562 21.4453C31.9271 22.0703 31.3281 22.7995 30.8594 23.6328C30.4167 24.4661 30.1953 25.3385 30.1953 26.25ZM44.2578 27.5391C44.2578 27.4609 44.2578 27.3568 44.2578 27.2266C44.2839 27.0703 44.2969 26.9792 44.2969 26.9531C44.375 26.1719 44.4661 25.1823 44.5703 23.9844C44.6745 22.7604 44.7786 21.5885 44.8828 20.4688C45.013 19.349 45.1172 18.3854 45.1953 17.5781C45.2734 16.7448 45.3125 16.3281 45.3125 16.3281L46.3672 15.3125C46.8099 15.4427 47.1354 15.625 47.3438 15.8594C47.5521 16.0677 47.6953 16.3021 47.7734 16.5625C47.8516 16.8229 47.8906 17.1094 47.8906 17.4219C47.8906 17.7344 47.8906 18.0469 47.8906 18.3594C47.8906 19.4531 47.7865 20.5208 47.5781 21.5625C47.3958 22.5781 47.3047 23.6198 47.3047 24.6875C47.3047 24.7396 47.3047 24.8698 47.3047 25.0781C47.3307 25.2604 47.3438 25.3776 47.3438 25.4297L56.9531 15.3125C56.9792 15.2865 57.0443 15.2734 57.1484 15.2734C57.2786 15.2734 57.3698 15.2734 57.4219 15.2734C57.6823 15.2734 57.9297 15.3255 58.1641 15.4297C58.3984 15.5339 58.5156 15.7552 58.5156 16.0938C58.5156 16.1198 58.5026 16.1458 58.4766 16.1719C58.4766 16.1719 58.4766 16.1849 58.4766 16.2109V16.3281C58.3464 16.5365 58.112 16.875 57.7734 17.3438C57.4609 17.8125 57.1094 18.3203 56.7188 18.8672C56.3542 19.4141 56.0026 19.9349 55.6641 20.4297C55.3255 20.8984 55.0911 21.224 54.9609 21.4062C54.5182 21.9531 53.9974 22.6042 53.3984 23.3594C52.8255 24.1146 52.2005 24.8828 51.5234 25.6641C50.8724 26.4193 50.1823 27.1484 49.4531 27.8516C48.75 28.5286 48.0469 29.0755 47.3438 29.4922C47.2135 29.5703 47.0182 29.6745 46.7578 29.8047C46.5234 29.9349 46.3932 30 46.3672 30C46.0807 30 45.8073 29.9219 45.5469 29.7656C45.3125 29.5833 45.0911 29.362 44.8828 29.1016C44.7005 28.8411 44.5443 28.5807 44.4141 28.3203C44.3099 28.0339 44.2578 27.7734 44.2578 27.5391ZM60.0781 27.9688C59.6354 26.9792 59.4401 26.0156 59.4922 25.0781C59.5443 24.1146 59.7526 23.2161 60.1172 22.3828C60.5078 21.5234 61.0026 20.7552 61.6016 20.0781C62.2266 19.375 62.8906 18.776 63.5938 18.2812C64.2969 17.7604 65 17.3698 65.7031 17.1094C66.4323 16.849 67.0703 16.7448 67.6172 16.7969C68.1641 16.8229 68.5938 17.0182 68.9062 17.3828C69.2188 17.7474 69.3229 18.3073 69.2188 19.0625C69.2188 20.0781 68.8932 20.9635 68.2422 21.7188C67.6172 22.474 66.9141 23.151 66.1328 23.75C65.3776 24.349 64.6745 24.8958 64.0234 25.3906C63.3984 25.8594 63.0859 26.3021 63.0859 26.7188C63.0859 26.9531 63.2161 27.1354 63.4766 27.2656C63.763 27.3958 64.0885 27.5 64.4531 27.5781C64.8177 27.6302 65.1823 27.6693 65.5469 27.6953C65.9115 27.7214 66.1719 27.7474 66.3281 27.7734C68.776 27.2526 70.612 26.9401 71.8359 26.8359C73.0599 26.7057 73.8281 26.7188 74.1406 26.875C74.4531 27.0052 74.388 27.2266 73.9453 27.5391C73.5286 27.8255 72.8776 28.138 71.9922 28.4766C71.1068 28.7891 70.0781 29.0755 68.9062 29.3359C67.7344 29.5964 66.5755 29.7526 65.4297 29.8047C64.2839 29.8307 63.2161 29.7135 62.2266 29.4531C61.263 29.1927 60.5469 28.6979 60.0781 27.9688ZM66.9141 19.0625C66.3932 19.0625 65.8984 19.2057 65.4297 19.4922C64.9609 19.7786 64.5312 20.1432 64.1406 20.5859C63.776 21.0026 63.4635 21.4714 63.2031 21.9922C62.9427 22.487 62.7474 22.9557 62.6172 23.3984C62.6693 23.4245 62.7083 23.4375 62.7344 23.4375H62.8516C63.2161 23.4375 63.6328 23.2812 64.1016 22.9688C64.5703 22.6562 65.013 22.2786 65.4297 21.8359C65.8464 21.3672 66.1979 20.8854 66.4844 20.3906C66.7708 19.8958 66.9141 19.4531 66.9141 19.0625ZM73.3203 25.6641C73.3203 25.1693 73.3854 24.7396 73.5156 24.375C73.6719 24.0104 74.0495 23.8281 74.6484 23.8281C74.7005 23.8281 74.8177 23.8411 75 23.8672C75.2083 23.8672 75.3516 23.8802 75.4297 23.9062C75.4036 25.1302 75.599 26.0547 76.0156 26.6797C76.4323 27.2786 77.2135 27.5781 78.3594 27.5781C79.2969 27.5781 80.2214 27.4349 81.1328 27.1484C82.0443 26.862 82.8646 26.4453 83.5938 25.8984C84.349 25.3255 84.9479 24.6354 85.3906 23.8281C85.8594 23.0208 86.0938 22.1094 86.0938 21.0938C86.0938 20.4688 85.8724 20.026 85.4297 19.7656C85.013 19.5052 84.5443 19.2969 84.0234 19.1406C83.5026 18.9844 83.0208 18.8151 82.5781 18.6328C82.1615 18.4245 81.9531 18.0729 81.9531 17.5781C81.9531 16.9792 82.3177 16.4062 83.0469 15.8594C83.776 15.3125 84.6354 14.8307 85.625 14.4141C86.6146 13.9714 87.5911 13.6328 88.5547 13.3984C89.5443 13.138 90.2995 13.0078 90.8203 13.0078C90.8203 13.763 90.651 14.2969 90.3125 14.6094C90 14.9219 89.6094 15.1693 89.1406 15.3516C88.6719 15.5339 88.1901 15.7161 87.6953 15.8984C87.2266 16.0547 86.8359 16.3672 86.5234 16.8359C86.9401 17.1745 87.2786 17.487 87.5391 17.7734C87.8255 18.0339 88.0469 18.3203 88.2031 18.6328C88.3594 18.9453 88.4635 19.2969 88.5156 19.6875C88.5677 20.0521 88.5938 20.4948 88.5938 21.0156C88.5938 22.3698 88.2943 23.6068 87.6953 24.7266C87.1224 25.8203 86.3672 26.7708 85.4297 27.5781C84.4922 28.3594 83.4245 28.9714 82.2266 29.4141C81.0286 29.8307 79.8047 30.0391 78.5547 30.0391C77.8776 30.0391 77.2135 29.9609 76.5625 29.8047C75.9375 29.6224 75.3776 29.349 74.8828 28.9844C74.4141 28.6198 74.0365 28.1641 73.75 27.6172C73.4635 27.0703 73.3203 26.4193 73.3203 25.6641Z" fill="white"/>
</svg>
